<svg xmlns="http://www.w3.org/2000/svg" xmlns:xlink="http://www.w3.org/1999/xlink" width="1920" zoomAndPan="magnify" viewBox="0 0 1440 809.999993" height="1080" preserveAspectRatio="xMidYMid meet" version="1.0"><defs><g/><clipPath id="5e6bea9689"><path d="M 316 70.636719 L 555 70.636719 L 555 309 L 316 309 Z M 316 70.636719 " clip-rule="nonzero"/></clipPath><clipPath id="60afcac335"><path d="M 229.332031 322 L 642.582031 322 L 642.582031 627.136719 L 229.332031 627.136719 Z M 229.332031 322 " clip-rule="nonzero"/></clipPath><clipPath id="6a4e619c0d"><path d="M 12 426.664062 L 860 426.664062 L 860 791.253906 L 12 791.253906 Z M 12 426.664062 " clip-rule="nonzero"/></clipPath><clipPath id="4cf2e86b8c"><path d="M 748.3125 791.253906 L 123.417969 791.253906 C 111.050781 791.253906 100.242188 782.902344 97.125 770.933594 L 12.71875 446.988281 C 11.453125 442.121094 12.507812 436.945312 15.582031 432.96875 C 18.65625 428.992188 23.398438 426.664062 28.425781 426.664062 L 843.308594 426.664062 C 848.332031 426.664062 853.074219 428.992188 856.148438 432.96875 C 859.222656 436.945312 860.28125 442.121094 859.011719 446.988281 L 774.605469 770.933594 C 771.488281 782.902344 760.679688 791.253906 748.3125 791.253906 Z M 748.3125 791.253906 " clip-rule="nonzero"/></clipPath><clipPath id="984b383172"><path d="M 0 0.664062 L 848 0.664062 L 848 365.253906 L 0 365.253906 Z M 0 0.664062 " clip-rule="nonzero"/></clipPath><clipPath id="4cab8b0f98"><path d="M 736.3125 365.253906 L 111.417969 365.253906 C 99.050781 365.253906 88.242188 356.902344 85.125 344.933594 L 0.71875 20.988281 C -0.546875 16.121094 0.507812 10.945312 3.582031 6.96875 C 6.65625 2.992188 11.398438 0.664062 16.425781 0.664062 L 831.308594 0.664062 C 836.332031 0.664062 841.074219 2.992188 844.148438 6.96875 C 847.222656 10.945312 848.28125 16.121094 847.011719 20.988281 L 762.605469 344.933594 C 759.488281 356.902344 748.679688 365.253906 736.3125 365.253906 Z M 736.3125 365.253906 " clip-rule="nonzero"/></clipPath><clipPath id="5fe5e7bc0e"><rect x="0" width="848" y="0" height="366"/></clipPath><clipPath id="f093462512"><rect x="0" width="246" y="0" height="412"/></clipPath><clipPath id="3bf9ca331f"><rect x="0" width="621" y="0" height="374"/></clipPath><clipPath id="8a14ad9458"><rect x="0" width="533" y="0" height="292"/></clipPath></defs><g clip-path="url(#5e6bea9689)"><path fill="#fdfcfb" d="M 554.761719 189.582031 C 554.761719 124.027344 501.421875 70.6875 435.867188 70.6875 C 370.316406 70.6875 316.976562 124.027344 316.976562 189.582031 C 316.976562 254.953125 370.316406 308.292969 435.867188 308.292969 C 501.421875 308.292969 554.761719 254.953125 554.761719 189.582031 Z M 554.761719 189.582031 " fill-opacity="1" fill-rule="nonzero"/></g><g clip-path="url(#60afcac335)"><path fill="#fdfcfb" d="M 229.332031 528.660156 L 229.332031 564.582031 C 229.332031 599.242188 257.527344 627.4375 292.191406 627.4375 L 579.546875 627.4375 C 614.207031 627.4375 642.40625 599.242188 642.40625 564.582031 L 642.40625 528.660156 C 642.40625 414.796875 549.734375 322.125 435.867188 322.125 C 322.003906 322.125 229.332031 414.796875 229.332031 528.660156 Z M 229.332031 528.660156 " fill-opacity="1" fill-rule="nonzero"/></g><g fill="#fdfcfb" fill-opacity="1"><g transform="translate(550.512219, 300.774226)"><g><path d="M 244.3125 -111.046875 L 244.3125 0 L 191 0 L 191 -111.046875 C 191 -129.703125 186.484375 -144.953125 177.453125 -156.796875 C 168.421875 -168.648438 154.429688 -174.578125 135.484375 -174.578125 C 116.523438 -174.578125 102.53125 -168.648438 93.5 -156.796875 C 84.46875 -144.953125 79.953125 -129.703125 79.953125 -111.046875 L 79.953125 0 L 26.65625 0 L 26.65625 -111.046875 C 26.65625 -132.078125 30.945312 -151.175781 39.53125 -168.34375 C 48.125 -185.519531 60.5625 -199.144531 76.84375 -209.21875 C 93.132812 -219.289062 112.679688 -224.328125 135.484375 -224.328125 C 158.578125 -224.328125 178.191406 -219.289062 194.328125 -209.21875 C 210.472656 -199.144531 222.835938 -185.519531 231.421875 -168.34375 C 240.015625 -151.175781 244.3125 -132.078125 244.3125 -111.046875 Z M 244.3125 -111.046875 "/></g></g></g><g fill="#fdfcfb" fill-opacity="1"><g transform="translate(793.490276, 300.774226)"><g><path d="M 145.25 -214.546875 L 145.25 -164.796875 L 76.40625 -164.796875 L 76.40625 -111.046875 C 76.40625 -92.390625 81.289062 -77.140625 91.0625 -65.296875 C 100.832031 -53.453125 115.785156 -47.53125 135.921875 -47.53125 C 140.367188 -47.53125 144.070312 -47.828125 147.03125 -48.421875 C 149.988281 -49.015625 152.953125 -49.457031 155.921875 -49.75 L 155.921875 0 C 152.066406 0.289062 148.878906 0.734375 146.359375 1.328125 C 143.847656 1.921875 139.78125 2.21875 134.15625 2.21875 C 111.351562 2.21875 91.65625 -2.8125 75.0625 -12.875 C 58.476562 -22.945312 45.671875 -36.570312 36.640625 -53.75 C 27.609375 -70.925781 23.09375 -90.023438 23.09375 -111.046875 L 23.09375 -275.40625 L 76.40625 -275.40625 L 76.40625 -214.546875 Z M 145.25 -214.546875 "/></g></g></g><g fill="#fdfcfb" fill-opacity="1"><g transform="translate(929.859852, 300.774226)"><g><path d="M 187.453125 -222.109375 L 240.765625 -222.109375 L 240.765625 -111.046875 C 240.765625 -90.023438 236.46875 -70.925781 227.875 -53.75 C 219.289062 -36.570312 206.925781 -22.945312 190.78125 -12.875 C 174.644531 -2.8125 155.023438 2.21875 131.921875 2.21875 C 109.117188 2.21875 89.570312 -2.8125 73.28125 -12.875 C 57 -22.945312 44.5625 -36.570312 35.96875 -53.75 C 27.382812 -70.925781 23.09375 -90.023438 23.09375 -111.046875 L 23.09375 -222.109375 L 76.40625 -222.109375 L 76.40625 -111.046875 C 76.40625 -92.390625 80.921875 -77.140625 89.953125 -65.296875 C 98.984375 -53.453125 112.972656 -47.53125 131.921875 -47.53125 C 150.878906 -47.53125 164.875 -53.453125 173.90625 -65.296875 C 182.9375 -77.140625 187.453125 -92.390625 187.453125 -111.046875 Z M 187.453125 -222.109375 "/></g></g></g><g fill="#fdfcfb" fill-opacity="1"><g transform="translate(1169.728507, 300.774226)"><g><path d="M 187.015625 -111.046875 C 186.117188 -130.597656 181.082031 -146.070312 171.90625 -157.46875 C 162.726562 -168.875 148.070312 -174.578125 127.9375 -174.578125 C 106.3125 -174.578125 90.757812 -168.359375 81.28125 -155.921875 C 71.8125 -143.484375 67.078125 -128.523438 67.078125 -111.046875 C 67.078125 -99.503906 69.070312 -88.921875 73.0625 -79.296875 C 77.0625 -69.671875 83.578125 -61.96875 92.609375 -56.1875 C 101.648438 -50.414062 113.425781 -47.53125 127.9375 -47.53125 C 146.289062 -47.53125 160.722656 -52.710938 171.234375 -63.078125 C 181.753906 -73.441406 187.015625 -89.429688 187.015625 -111.046875 Z M 258.078125 0 L 204.78125 0 C 202.40625 -5.925781 200.328125 -11.703125 198.546875 -17.328125 C 196.773438 -22.953125 195.148438 -28.578125 193.671875 -34.203125 C 186.265625 -23.242188 176.566406 -14.429688 164.578125 -7.765625 C 152.585938 -1.109375 138.300781 2.21875 121.71875 2.21875 C 100.6875 2.21875 82.023438 -2.8125 65.734375 -12.875 C 49.453125 -22.945312 36.71875 -36.644531 27.53125 -53.96875 C 18.351562 -71.289062 13.765625 -90.46875 13.765625 -111.5 C 13.765625 -132.226562 18.28125 -151.101562 27.3125 -168.125 C 36.34375 -185.15625 49.375 -198.78125 66.40625 -209 C 83.4375 -219.21875 103.945312 -224.328125 127.9375 -224.328125 C 161.6875 -224.328125 188.554688 -214.109375 208.546875 -193.671875 C 228.535156 -173.234375 239.125 -145.691406 240.3125 -111.046875 C 240.613281 -103.648438 240.910156 -94.023438 241.203125 -82.171875 C 241.492188 -70.328125 242.75 -57.296875 244.96875 -43.078125 C 247.195312 -28.867188 251.566406 -14.507812 258.078125 0 Z M 258.078125 0 "/></g></g></g><g clip-path="url(#6a4e619c0d)"><g clip-path="url(#4cf2e86b8c)"><g transform="matrix(1, 0, 0, 1, 12, 426)"><g clip-path="url(#5fe5e7bc0e)"><g clip-path="url(#984b383172)"><g clip-path="url(#4cab8b0f98)"><path fill="#fdfcfb" d="M 852.308594 365.253906 L -5.046875 365.253906 L -5.046875 0.664062 L 852.308594 0.664062 Z M 852.308594 365.253906 " fill-opacity="1" fill-rule="nonzero"/></g></g></g></g></g></g><g transform="matrix(1, 0, 0, 1, 61, 0.000000000000039746)"><g clip-path="url(#f093462512)"><g fill="#fdfcfb" fill-opacity="1"><g transform="translate(0.61169, 299.658826)"><g><path d="M 29.765625 0 L 29.765625 -271.84375 L 149.6875 -271.84375 C 167.15625 -271.84375 183 -267.769531 197.21875 -259.625 C 211.4375 -251.476562 222.691406 -240.664062 230.984375 -227.1875 C 239.273438 -213.71875 243.421875 -198.84375 243.421875 -182.5625 C 243.421875 -166.570312 239.273438 -151.765625 230.984375 -138.140625 C 222.691406 -124.515625 211.4375 -113.628906 197.21875 -105.484375 C 183 -97.347656 167.15625 -93.28125 149.6875 -93.28125 L 83.0625 -93.28125 L 83.0625 0 Z M 149.6875 -222.09375 L 83.0625 -222.09375 L 83.0625 -143.03125 L 149.6875 -143.03125 C 161.238281 -143.03125 170.863281 -146.804688 178.5625 -154.359375 C 186.257812 -161.910156 190.109375 -171.3125 190.109375 -182.5625 C 190.109375 -193.8125 186.257812 -203.210938 178.5625 -210.765625 C 170.863281 -218.316406 161.238281 -222.09375 149.6875 -222.09375 Z M 149.6875 -222.09375 "/></g></g></g></g></g><g transform="matrix(1, 0, 0, 1, 126, 436)"><g clip-path="url(#3bf9ca331f)"><g fill="#000000" fill-opacity="1"><g transform="translate(1.70604, 285.676167)"><g><path d="M 103.984375 0 L 21.796875 0 L 21.796875 -233.96875 L 103.984375 -233.96875 C 129.472656 -233.96875 151.140625 -228.679688 168.984375 -218.109375 C 186.828125 -207.535156 200.523438 -193.453125 210.078125 -175.859375 C 219.640625 -158.273438 224.421875 -138.648438 224.421875 -116.984375 C 224.421875 -95.578125 219.640625 -76.015625 210.078125 -58.296875 C 200.523438 -40.585938 186.828125 -26.441406 168.984375 -15.859375 C 151.140625 -5.285156 129.472656 0 103.984375 0 Z M 79.140625 -180.828125 L 79.140625 -53.140625 L 103.984375 -53.140625 C 118.765625 -53.140625 130.804688 -56.070312 140.109375 -61.9375 C 149.421875 -67.800781 156.242188 -75.570312 160.578125 -85.25 C 164.910156 -94.9375 167.078125 -105.515625 167.078125 -116.984375 C 167.078125 -128.710938 164.910156 -139.351562 160.578125 -148.90625 C 156.242188 -158.46875 149.421875 -166.175781 140.109375 -172.03125 C 130.804688 -177.894531 118.765625 -180.828125 103.984375 -180.828125 Z M 79.140625 -180.828125 "/></g></g></g><g fill="#000000" fill-opacity="1"><g transform="translate(201.273443, 285.676167)"><g><path d="M 21.796875 -233.96875 L 195.75 -233.96875 L 195.75 -180.828125 L 79.140625 -180.828125 L 79.140625 -143.375 L 172.8125 -143.375 L 172.8125 -90.21875 L 79.140625 -90.21875 L 79.140625 -53.140625 L 195.75 -53.140625 L 195.75 0 L 21.796875 0 Z M 21.796875 -233.96875 "/></g></g></g><g fill="#000000" fill-opacity="1"><g transform="translate(369.108739, 285.676167)"><g><path d="M 183.515625 -233.96875 L 246.203125 -233.96875 L 152.546875 0 L 95.203125 0 L 1.53125 -233.96875 L 63.84375 -233.96875 L 123.875 -65.375 Z M 183.515625 -233.96875 "/></g></g></g></g></g><g transform="matrix(1, 0, 0, 1, 892, 356)"><g clip-path="url(#8a14ad9458)"><g fill="#fdfcfb" fill-opacity="1"><g transform="translate(1.160828, 218.186725)"><g><path d="M 160.171875 -145.34375 L 99.125 0 L 64.25 0 L 3.203125 -145.34375 L 38.078125 -145.34375 L 81.6875 -36.34375 L 125.296875 -145.34375 Z M 160.171875 -145.34375 "/></g></g></g><g fill="#fdfcfb" fill-opacity="1"><g transform="translate(148.840516, 218.186725)"><g/></g></g><g fill="#fdfcfb" fill-opacity="1"><g transform="translate(196.807314, 218.186725)"><g><path d="M 78.484375 -161.34375 L 78.484375 -32.5625 L 113.375 -32.5625 L 113.375 0 L 8.71875 0 L 8.71875 -32.5625 L 43.609375 -32.5625 L 43.609375 -120.9375 L 14.53125 -114.25 L 14.53125 -146.8125 Z M 78.484375 -161.34375 "/></g></g></g><g fill="#fdfcfb" fill-opacity="1"><g transform="translate(305.532095, 218.186725)"><g><path d="M 64.828125 -20.640625 C 64.828125 -14.628906 62.890625 -9.441406 59.015625 -5.078125 C 55.140625 -0.722656 49.710938 1.453125 42.734375 1.453125 C 35.753906 1.453125 30.273438 -0.722656 26.296875 -5.078125 C 22.328125 -9.441406 20.34375 -14.628906 20.34375 -20.640625 C 20.34375 -26.835938 22.328125 -32.117188 26.296875 -36.484375 C 30.273438 -40.847656 35.753906 -43.03125 42.734375 -43.03125 C 49.710938 -43.03125 55.140625 -40.847656 59.015625 -36.484375 C 62.890625 -32.117188 64.828125 -26.835938 64.828125 -20.640625 Z M 64.828125 -20.640625 "/></g></g></g><g fill="#fdfcfb" fill-opacity="1"><g transform="translate(374.720616, 218.186725)"><g><path d="M 79.078125 -31.109375 C 88.378906 -31.109375 95.882812 -33.285156 101.59375 -37.640625 C 107.3125 -42.003906 111.523438 -47.867188 114.234375 -55.234375 C 116.953125 -62.597656 118.3125 -70.832031 118.3125 -79.9375 C 118.3125 -89.050781 116.953125 -97.289062 114.234375 -104.65625 C 111.523438 -112.019531 107.3125 -117.878906 101.59375 -122.234375 C 95.882812 -126.597656 88.378906 -128.78125 79.078125 -128.78125 C 69.960938 -128.78125 62.5 -126.597656 56.6875 -122.234375 C 50.875 -117.878906 46.609375 -112.019531 43.890625 -104.65625 C 41.179688 -97.289062 39.828125 -89.050781 39.828125 -79.9375 C 39.828125 -70.832031 41.179688 -62.597656 43.890625 -55.234375 C 46.609375 -47.867188 50.875 -42.003906 56.6875 -37.640625 C 62.5 -33.285156 69.960938 -31.109375 79.078125 -31.109375 Z M 79.078125 1.453125 C 63.566406 1.453125 50.238281 -2.175781 39.09375 -9.4375 C 27.957031 -16.707031 19.476562 -26.492188 13.65625 -38.796875 C 7.84375 -51.109375 4.9375 -64.820312 4.9375 -79.9375 C 4.9375 -95.0625 7.84375 -108.773438 13.65625 -121.078125 C 19.476562 -133.378906 27.957031 -143.164062 39.09375 -150.4375 C 50.238281 -157.707031 63.566406 -161.34375 79.078125 -161.34375 C 94.773438 -161.34375 108.144531 -157.707031 119.1875 -150.4375 C 130.238281 -143.164062 138.671875 -133.378906 144.484375 -121.078125 C 150.296875 -108.773438 153.203125 -95.0625 153.203125 -79.9375 C 153.203125 -64.820312 150.296875 -51.109375 144.484375 -38.796875 C 138.671875 -26.492188 130.238281 -16.707031 119.1875 -9.4375 C 108.144531 -2.175781 94.773438 1.453125 79.078125 1.453125 Z M 79.078125 1.453125 "/></g></g></g></g></g></svg>