<svg xmlns="http://www.w3.org/2000/svg" xmlns:xlink="http://www.w3.org/1999/xlink" width="1080" zoomAndPan="magnify" viewBox="0 0 810 809.999993" height="1080" preserveAspectRatio="xMidYMid meet" version="1.0"><defs><g/><clipPath id="dbcf700bac"><path d="M 298 71.128906 L 512 71.128906 L 512 285 L 298 285 Z M 298 71.128906 " clip-rule="nonzero"/></clipPath><clipPath id="fded0a4ec8"><path d="M 219.457031 297 L 590.707031 297 L 590.707031 571.378906 L 219.457031 571.378906 Z M 219.457031 297 " clip-rule="nonzero"/></clipPath><clipPath id="ab93ac49d9"><rect x="0" width="222" y="0" height="378"/></clipPath><clipPath id="2ca7c701da"><path d="M 22.246094 390.957031 L 788 390.957031 L 788 718.480469 L 22.246094 718.480469 Z M 22.246094 390.957031 " clip-rule="nonzero"/></clipPath><clipPath id="66bb8ca40c"><path d="M 693.289062 718.480469 L 116.699219 718.480469 C 110.070312 718.480469 104.28125 714.003906 102.613281 707.59375 L 22.949219 401.84375 C 22.269531 399.238281 22.835938 396.464844 24.480469 394.335938 C 26.128906 392.207031 28.667969 390.957031 31.363281 390.957031 L 778.625 390.957031 C 781.316406 390.957031 783.859375 392.207031 785.503906 394.335938 C 787.152344 396.464844 787.71875 399.238281 787.039062 401.84375 L 707.375 707.59375 C 705.707031 714.003906 699.914062 718.480469 693.289062 718.480469 Z M 693.289062 718.480469 " clip-rule="nonzero"/></clipPath><clipPath id="d2a7b95ae3"><path d="M 0.246094 0.957031 L 765.921875 0.957031 L 765.921875 328.480469 L 0.246094 328.480469 Z M 0.246094 0.957031 " clip-rule="nonzero"/></clipPath><clipPath id="d1ffdfb88c"><path d="M 671.289062 328.480469 L 94.699219 328.480469 C 88.070312 328.480469 82.28125 324.003906 80.613281 317.59375 L 0.949219 11.84375 C 0.269531 9.238281 0.835938 6.464844 2.480469 4.335938 C 4.128906 2.207031 6.667969 0.957031 9.363281 0.957031 L 756.625 0.957031 C 759.316406 0.957031 761.859375 2.207031 763.503906 4.335938 C 765.152344 6.464844 765.71875 9.238281 765.039062 11.84375 L 685.375 317.59375 C 683.707031 324.003906 677.914062 328.480469 671.289062 328.480469 Z M 671.289062 328.480469 " clip-rule="nonzero"/></clipPath><clipPath id="c07361cf49"><rect x="0" width="766" y="0" height="329"/></clipPath><clipPath id="9933037794"><rect x="0" width="221" y="0" height="378"/></clipPath><clipPath id="95d565d813"><rect x="0" width="573" y="0" height="401"/></clipPath></defs><g clip-path="url(#dbcf700bac)"><path fill="#000000" d="M 511.9375 177.976562 C 511.9375 119.085938 463.996094 71.167969 405.082031 71.167969 C 346.164062 71.167969 298.226562 119.085938 298.226562 177.976562 C 298.226562 236.707031 346.164062 284.628906 405.082031 284.628906 C 463.996094 284.628906 511.9375 236.707031 511.9375 177.976562 Z M 511.9375 177.976562 " fill-opacity="1" fill-rule="nonzero"/></g><g clip-path="url(#fded0a4ec8)"><path fill="#000000" d="M 219.457031 482.597656 L 219.457031 514.867188 C 219.457031 546.007812 244.796875 571.339844 275.953125 571.339844 L 534.210938 571.339844 C 565.363281 571.339844 590.707031 546.007812 590.707031 514.867188 L 590.707031 482.597656 C 590.707031 380.304688 507.417969 297.050781 405.082031 297.050781 C 302.746094 297.050781 219.457031 380.304688 219.457031 482.597656 Z M 219.457031 482.597656 " fill-opacity="1" fill-rule="nonzero"/></g><g transform="matrix(1, 0, 0, 1, 507, 0.000000000000039746)"><g clip-path="url(#ab93ac49d9)"><g fill="#000000" fill-opacity="1"><g transform="translate(0.983474, 276.864397)"><g><path d="M 219.46875 -99.75 L 219.46875 0 L 171.578125 0 L 171.578125 -99.75 C 171.578125 -116.507812 167.519531 -130.207031 159.40625 -140.84375 C 151.300781 -151.488281 138.734375 -156.8125 121.703125 -156.8125 C 104.679688 -156.8125 92.113281 -151.488281 84 -140.84375 C 75.882812 -130.207031 71.828125 -116.507812 71.828125 -99.75 L 71.828125 0 L 23.9375 0 L 23.9375 -99.75 C 23.9375 -118.644531 27.789062 -135.804688 35.5 -151.234375 C 43.21875 -166.660156 54.394531 -178.894531 69.03125 -187.9375 C 83.664062 -196.988281 101.222656 -201.515625 121.703125 -201.515625 C 142.453125 -201.515625 160.078125 -196.988281 174.578125 -187.9375 C 189.078125 -178.894531 200.179688 -166.660156 207.890625 -151.234375 C 215.609375 -135.804688 219.46875 -118.644531 219.46875 -99.75 Z M 219.46875 -99.75 "/></g></g></g></g></g><g clip-path="url(#2ca7c701da)"><g clip-path="url(#66bb8ca40c)"><g transform="matrix(1, 0, 0, 1, 22, 390)"><g clip-path="url(#c07361cf49)"><g clip-path="url(#d2a7b95ae3)"><g clip-path="url(#d1ffdfb88c)"><path fill="#000000" d="M 767.875 328.480469 L -2.3125 328.480469 L -2.3125 0.957031 L 767.875 0.957031 Z M 767.875 328.480469 " fill-opacity="1" fill-rule="nonzero"/></g></g></g></g></g></g><g transform="matrix(1, 0, 0, 1, 68, 0.000000000000039746)"><g clip-path="url(#9933037794)"><g fill="#000000" fill-opacity="1"><g transform="translate(0.789165, 276.864397)"><g><path d="M 26.734375 0 L 26.734375 -244.203125 L 134.46875 -244.203125 C 150.164062 -244.203125 164.398438 -240.546875 177.171875 -233.234375 C 189.941406 -225.921875 200.050781 -216.210938 207.5 -204.109375 C 214.945312 -192.003906 218.671875 -178.632812 218.671875 -164 C 218.671875 -149.632812 214.945312 -136.332031 207.5 -124.09375 C 200.050781 -111.863281 189.941406 -102.085938 177.171875 -94.765625 C 164.398438 -87.453125 150.164062 -83.796875 134.46875 -83.796875 L 74.625 -83.796875 L 74.625 0 Z M 134.46875 -199.515625 L 74.625 -199.515625 L 74.625 -128.484375 L 134.46875 -128.484375 C 144.84375 -128.484375 153.488281 -131.875 160.40625 -138.65625 C 167.320312 -145.445312 170.78125 -153.894531 170.78125 -164 C 170.78125 -174.113281 167.320312 -182.5625 160.40625 -189.34375 C 153.488281 -196.125 144.84375 -199.515625 134.46875 -199.515625 Z M 134.46875 -199.515625 "/></g></g></g></g></g><g transform="matrix(1, 0, 0, 1, 118, 370)"><g clip-path="url(#95d565d813)"><g fill="#ffffff" fill-opacity="1"><g transform="translate(0.480207, 300.106109)"><g><path d="M 130.484375 -192.734375 L 130.484375 -148.046875 L 68.640625 -148.046875 L 68.640625 -99.75 C 68.640625 -83 73.023438 -69.300781 81.796875 -58.65625 C 90.578125 -48.019531 104.015625 -42.703125 122.109375 -42.703125 C 126.097656 -42.703125 129.421875 -42.96875 132.078125 -43.5 C 134.734375 -44.03125 137.394531 -44.425781 140.0625 -44.6875 L 140.0625 0 C 136.601562 0.269531 133.742188 0.671875 131.484375 1.203125 C 129.222656 1.734375 125.5625 2 120.5 2 C 100.019531 2 82.332031 -2.519531 67.4375 -11.5625 C 52.539062 -20.613281 41.035156 -32.851562 32.921875 -48.28125 C 24.804688 -63.707031 20.75 -80.863281 20.75 -99.75 L 20.75 -247.40625 L 68.640625 -247.40625 L 68.640625 -192.734375 Z M 130.484375 -192.734375 "/></g></g></g><g fill="#ffffff" fill-opacity="1"><g transform="translate(122.977739, 300.106109)"><g><path d="M 168.390625 -199.515625 L 216.28125 -199.515625 L 216.28125 -99.75 C 216.28125 -80.863281 212.421875 -63.707031 204.703125 -48.28125 C 196.984375 -32.851562 185.875 -20.613281 171.375 -11.5625 C 156.882812 -2.519531 139.265625 2 118.515625 2 C 98.023438 2 80.460938 -2.519531 65.828125 -11.5625 C 51.203125 -20.613281 40.03125 -32.851562 32.3125 -48.28125 C 24.601562 -63.707031 20.75 -80.863281 20.75 -99.75 L 20.75 -199.515625 L 68.640625 -199.515625 L 68.640625 -99.75 C 68.640625 -83 72.691406 -69.300781 80.796875 -58.65625 C 88.910156 -48.019531 101.484375 -42.703125 118.515625 -42.703125 C 135.535156 -42.703125 148.101562 -48.019531 156.21875 -58.65625 C 164.332031 -69.300781 168.390625 -83 168.390625 -99.75 Z M 168.390625 -199.515625 "/></g></g></g><g fill="#ffffff" fill-opacity="1"><g transform="translate(338.447172, 300.106109)"><g><path d="M 167.984375 -99.75 C 167.191406 -117.3125 162.671875 -131.210938 154.421875 -141.453125 C 146.179688 -151.691406 133.015625 -156.8125 114.921875 -156.8125 C 95.503906 -156.8125 81.535156 -151.222656 73.015625 -140.046875 C 64.503906 -128.878906 60.25 -115.445312 60.25 -99.75 C 60.25 -89.382812 62.046875 -79.878906 65.640625 -71.234375 C 69.234375 -62.585938 75.085938 -55.671875 83.203125 -50.484375 C 91.316406 -45.296875 101.890625 -42.703125 114.921875 -42.703125 C 131.410156 -42.703125 144.375 -47.351562 153.8125 -56.65625 C 163.257812 -65.96875 167.984375 -80.332031 167.984375 -99.75 Z M 231.84375 0 L 183.953125 0 C 181.828125 -5.320312 179.960938 -10.507812 178.359375 -15.5625 C 176.765625 -20.613281 175.304688 -25.664062 173.984375 -30.71875 C 167.328125 -20.882812 158.613281 -12.972656 147.84375 -6.984375 C 137.070312 -0.992188 124.234375 2 109.328125 2 C 90.441406 2 73.679688 -2.519531 59.046875 -11.5625 C 44.421875 -20.613281 32.984375 -32.921875 24.734375 -48.484375 C 16.492188 -64.046875 12.375 -81.269531 12.375 -100.15625 C 12.375 -118.78125 16.425781 -135.738281 24.53125 -151.03125 C 32.644531 -166.332031 44.347656 -178.570312 59.640625 -187.75 C 74.941406 -196.925781 93.367188 -201.515625 114.921875 -201.515625 C 145.242188 -201.515625 169.382812 -192.332031 187.34375 -173.96875 C 205.300781 -155.613281 214.8125 -130.875 215.875 -99.75 C 216.144531 -93.101562 216.410156 -84.457031 216.671875 -73.8125 C 216.941406 -63.175781 218.070312 -51.472656 220.0625 -38.703125 C 222.0625 -25.929688 225.988281 -13.03125 231.84375 0 Z M 231.84375 0 "/></g></g></g></g></g></svg>