<svg xmlns="http://www.w3.org/2000/svg" xmlns:xlink="http://www.w3.org/1999/xlink" width="1080" zoomAndPan="magnify" viewBox="0 0 810 809.999993" height="1080" preserveAspectRatio="xMidYMid meet" version="1.0"><defs><clipPath id="a232e59e44"><path d="M 211 299 L 445 299 L 445 528 L 211 528 Z M 211 299 " clip-rule="nonzero"/></clipPath><clipPath id="05c3b13bcb"><path d="M 455.464844 369.828125 L 277.9375 539.035156 L 200.03125 457.296875 L 377.558594 288.089844 Z M 455.464844 369.828125 " clip-rule="nonzero"/></clipPath><clipPath id="f5b65344be"><path d="M 259.066406 518.773438 L 219.363281 477.117188 C 208.8125 466.046875 209.234375 448.523438 220.300781 437.972656 L 357.515625 307.191406 C 368.585938 296.640625 386.109375 297.0625 396.660156 308.128906 L 436.363281 349.785156 C 446.914062 360.855469 446.492188 378.378906 435.425781 388.929688 L 298.210938 519.714844 C 287.140625 530.261719 269.617188 529.84375 259.066406 518.773438 Z M 259.066406 518.773438 " clip-rule="nonzero"/></clipPath><clipPath id="b3e1d33026"><path d="M 0 0 L 234 0 L 234 229 L 0 229 Z M 0 0 " clip-rule="nonzero"/></clipPath><clipPath id="60bf45a786"><path d="M 244.464844 70.828125 L 66.9375 240.035156 L -10.96875 158.296875 L 166.558594 -10.910156 Z M 244.464844 70.828125 " clip-rule="nonzero"/></clipPath><clipPath id="09c1c2fe13"><path d="M 48.066406 219.773438 L 8.363281 178.117188 C -2.1875 167.046875 -1.765625 149.523438 9.300781 138.972656 L 146.515625 8.191406 C 157.585938 -2.359375 175.109375 -1.9375 185.660156 9.128906 L 225.363281 50.785156 C 235.914062 61.855469 235.492188 79.378906 224.425781 89.929688 L 87.210938 220.714844 C 76.140625 231.261719 58.617188 230.84375 48.066406 219.773438 Z M 48.066406 219.773438 " clip-rule="nonzero"/></clipPath><clipPath id="1ead9ad698"><rect x="0" width="234" y="0" height="229"/></clipPath><clipPath id="450cec7b08"><path d="M 1 292.015625 L 809.25 292.015625 L 809.25 404.933594 L 1 404.933594 Z M 1 292.015625 " clip-rule="nonzero"/></clipPath><clipPath id="e2bd7da43b"><path d="M 1.105469 377.25 L 1.105469 319.699219 C 1.105469 304.410156 13.5 292.015625 28.792969 292.015625 L 781.5625 292.015625 C 796.855469 292.015625 809.25 304.410156 809.25 319.699219 L 809.25 377.25 C 809.25 392.539062 796.855469 404.933594 781.5625 404.933594 L 28.792969 404.933594 C 13.5 404.933594 1.105469 392.539062 1.105469 377.25 Z M 1.105469 377.25 " clip-rule="nonzero"/></clipPath><clipPath id="2001ad8a7b"><path d="M 0 0.015625 L 808.25 0.015625 L 808.25 112.933594 L 0 112.933594 Z M 0 0.015625 " clip-rule="nonzero"/></clipPath><clipPath id="ed9299823d"><path d="M 0.105469 85.25 L 0.105469 27.699219 C 0.105469 12.410156 12.5 0.015625 27.792969 0.015625 L 780.5625 0.015625 C 795.855469 0.015625 808.25 12.410156 808.25 27.699219 L 808.25 85.25 C 808.25 100.539062 795.855469 112.933594 780.5625 112.933594 L 27.792969 112.933594 C 12.5 112.933594 0.105469 100.539062 0.105469 85.25 Z M 0.105469 85.25 " clip-rule="nonzero"/></clipPath><clipPath id="2127ae498e"><rect x="0" width="809" y="0" height="113"/></clipPath><clipPath id="97f59a0b27"><path d="M 0.0273438 292.015625 L 424.359375 292.015625 L 424.359375 404.933594 L 0.0273438 404.933594 Z M 0.0273438 292.015625 " clip-rule="nonzero"/></clipPath><clipPath id="78e351e8d6"><path d="M 0.214844 377.25 L 0.214844 319.699219 C 0.214844 304.410156 12.613281 292.015625 27.902344 292.015625 L 396.671875 292.015625 C 411.964844 292.015625 424.359375 304.410156 424.359375 319.699219 L 424.359375 377.25 C 424.359375 392.539062 411.964844 404.933594 396.671875 404.933594 L 27.902344 404.933594 C 12.613281 404.933594 0.214844 392.539062 0.214844 377.25 Z M 0.214844 377.25 " clip-rule="nonzero"/></clipPath><clipPath id="3cf5d612bc"><path d="M 0.0273438 0.015625 L 424.359375 0.015625 L 424.359375 112.933594 L 0.0273438 112.933594 Z M 0.0273438 0.015625 " clip-rule="nonzero"/></clipPath><clipPath id="49ae267e73"><path d="M 0.214844 85.25 L 0.214844 27.699219 C 0.214844 12.410156 12.613281 0.015625 27.902344 0.015625 L 396.671875 0.015625 C 411.964844 0.015625 424.359375 12.410156 424.359375 27.699219 L 424.359375 85.25 C 424.359375 100.539062 411.964844 112.933594 396.671875 112.933594 L 27.902344 112.933594 C 12.613281 112.933594 0.214844 100.539062 0.214844 85.25 Z M 0.214844 85.25 " clip-rule="nonzero"/></clipPath><clipPath id="5c615243c1"><rect x="0" width="425" y="0" height="113"/></clipPath><clipPath id="c24c3d67d1"><path d="M 360 297 L 591 297 L 591 528 L 360 528 Z M 360 297 " clip-rule="nonzero"/></clipPath><clipPath id="08476dc4b8"><path d="M 521.769531 539.195312 L 348.351562 365.78125 L 428.199219 285.933594 L 601.613281 459.351562 Z M 521.769531 539.195312 " clip-rule="nonzero"/></clipPath><clipPath id="dd46450847"><path d="M 368.152344 346.429688 L 408.847656 305.734375 C 419.65625 294.921875 437.1875 294.921875 448 305.734375 L 582.039062 439.773438 C 592.851562 450.585938 592.851562 468.117188 582.039062 478.929688 L 541.347656 519.621094 C 530.535156 530.433594 513.003906 530.433594 502.191406 519.621094 L 368.152344 385.582031 C 357.339844 374.769531 357.339844 357.238281 368.152344 346.429688 Z M 368.152344 346.429688 " clip-rule="nonzero"/></clipPath><clipPath id="960291ff66"><path d="M 0 0 L 231 0 L 231 231 L 0 231 Z M 0 0 " clip-rule="nonzero"/></clipPath><clipPath id="8ebf8a5dab"><path d="M 161.769531 242.195312 L -11.648438 68.78125 L 68.199219 -11.066406 L 241.613281 162.351562 Z M 161.769531 242.195312 " clip-rule="nonzero"/></clipPath><clipPath id="3021a34d2c"><path d="M 8.152344 49.429688 L 48.847656 8.734375 C 59.65625 -2.078125 77.1875 -2.078125 88 8.734375 L 222.039062 142.773438 C 232.851562 153.585938 232.851562 171.117188 222.039062 181.929688 L 181.347656 222.621094 C 170.535156 233.433594 153.003906 233.433594 142.191406 222.621094 L 8.152344 88.582031 C -2.660156 77.769531 -2.660156 60.238281 8.152344 49.429688 Z M 8.152344 49.429688 " clip-rule="nonzero"/></clipPath><clipPath id="2a60b83c8b"><rect x="0" width="231" y="0" height="231"/></clipPath><clipPath id="df22bcc165"><path d="M 404.996094 292.699219 L 484 292.699219 L 484 404.179688 L 404.996094 404.179688 Z M 404.996094 292.699219 " clip-rule="nonzero"/></clipPath><clipPath id="fb7f67b856"><path d="M 470.769531 375.164062 L 439.363281 399.535156 C 432.9375 404.519531 424.234375 405.414062 416.929688 401.835938 C 409.625 398.257812 404.996094 390.835938 404.996094 382.699219 L 404.996094 314.292969 C 404.996094 306.160156 409.625 298.738281 416.929688 295.160156 C 424.234375 291.582031 432.9375 292.476562 439.363281 297.460938 L 470.769531 321.828125 C 479.007812 328.222656 483.828125 338.066406 483.828125 348.496094 C 483.828125 358.925781 479.007812 368.769531 470.769531 375.164062 Z M 470.769531 375.164062 " clip-rule="nonzero"/></clipPath><clipPath id="c5a645170c"><path d="M 0.996094 0.699219 L 79.839844 0.699219 L 79.839844 112.179688 L 0.996094 112.179688 Z M 0.996094 0.699219 " clip-rule="nonzero"/></clipPath><clipPath id="da78f34c58"><path d="M 66.769531 83.164062 L 35.363281 107.535156 C 28.9375 112.519531 20.234375 113.414062 12.929688 109.835938 C 5.625 106.257812 0.996094 98.835938 0.996094 90.699219 L 0.996094 22.292969 C 0.996094 14.160156 5.625 6.738281 12.929688 3.160156 C 20.234375 -0.417969 28.9375 0.476562 35.363281 5.460938 L 66.769531 29.828125 C 75.007812 36.222656 79.828125 46.066406 79.828125 56.496094 C 79.828125 66.925781 75.007812 76.769531 66.769531 83.164062 Z M 66.769531 83.164062 " clip-rule="nonzero"/></clipPath><clipPath id="1859d322c2"><rect x="0" width="80" y="0" height="113"/></clipPath><clipPath id="4635369ba4"><path d="M 360.554688 292 L 440.226562 292 L 440.226562 404.945312 L 360.554688 404.945312 Z M 360.554688 292 " clip-rule="nonzero"/></clipPath><clipPath id="7a78bae96d"><path d="M 360.554688 377.257812 L 360.554688 319.710938 C 360.554688 304.421875 372.949219 292.023438 388.238281 292.023438 L 412.539062 292.023438 C 427.828125 292.023438 440.226562 304.421875 440.226562 319.710938 L 440.226562 377.257812 C 440.226562 392.550781 427.828125 404.945312 412.539062 404.945312 L 388.238281 404.945312 C 372.949219 404.945312 360.554688 392.550781 360.554688 377.257812 Z M 360.554688 377.257812 " clip-rule="nonzero"/></clipPath><clipPath id="d94c9ebc0c"><path d="M 0.554688 0 L 80.226562 0 L 80.226562 112.945312 L 0.554688 112.945312 Z M 0.554688 0 " clip-rule="nonzero"/></clipPath><clipPath id="a6bbc93f19"><path d="M 0.554688 85.257812 L 0.554688 27.710938 C 0.554688 12.421875 12.949219 0.0234375 28.238281 0.0234375 L 52.539062 0.0234375 C 67.828125 0.0234375 80.226562 12.421875 80.226562 27.710938 L 80.226562 85.257812 C 80.226562 100.550781 67.828125 112.945312 52.539062 112.945312 L 28.238281 112.945312 C 12.949219 112.945312 0.554688 100.550781 0.554688 85.257812 Z M 0.554688 85.257812 " clip-rule="nonzero"/></clipPath><clipPath id="e990b4228e"><rect x="0" width="81" y="0" height="113"/></clipPath><clipPath id="5a6ad4cbdd"><path d="M 326 292.808594 L 405 292.808594 L 405 404 L 326 404 Z M 326 292.808594 " clip-rule="nonzero"/></clipPath><clipPath id="95bddc5182"><path d="M 339.226562 321.824219 L 370.632812 297.457031 C 377.054688 292.46875 385.761719 291.578125 393.0625 295.152344 C 400.367188 298.730469 405 306.15625 405 314.289062 L 405 382.695312 C 405 390.828125 400.367188 398.253906 393.0625 401.828125 C 385.761719 405.40625 377.054688 404.515625 370.632812 399.527344 L 339.226562 375.160156 C 330.988281 368.765625 326.164062 358.921875 326.164062 348.492188 C 326.164062 338.0625 330.988281 328.21875 339.226562 321.824219 Z M 339.226562 321.824219 " clip-rule="nonzero"/></clipPath><clipPath id="914b4917f4"><path d="M 0.160156 0.808594 L 79 0.808594 L 79 112 L 0.160156 112 Z M 0.160156 0.808594 " clip-rule="nonzero"/></clipPath><clipPath id="a4a94ec6d2"><path d="M 13.226562 29.824219 L 44.632812 5.457031 C 51.054688 0.46875 59.761719 -0.421875 67.0625 3.152344 C 74.367188 6.730469 79 14.15625 79 22.289062 L 79 90.695312 C 79 98.828125 74.367188 106.253906 67.0625 109.828125 C 59.761719 113.40625 51.054688 112.515625 44.632812 107.527344 L 13.226562 83.160156 C 4.988281 76.765625 0.164062 66.921875 0.164062 56.492188 C 0.164062 46.0625 4.988281 36.21875 13.226562 29.824219 Z M 13.226562 29.824219 " clip-rule="nonzero"/></clipPath><clipPath id="fc0c3ad922"><rect x="0" width="79" y="0" height="112"/></clipPath></defs><g clip-path="url(#a232e59e44)"><g clip-path="url(#05c3b13bcb)"><g clip-path="url(#f5b65344be)"><g transform="matrix(1, 0, 0, 1, 211, 299)"><g clip-path="url(#1ead9ad698)"><g clip-path="url(#b3e1d33026)"><g clip-path="url(#60bf45a786)"><g clip-path="url(#09c1c2fe13)"><path fill="#323232" d="M 244.464844 70.828125 L 67.257812 239.730469 L -10.648438 157.992188 L 166.558594 -10.910156 Z M 244.464844 70.828125 " fill-opacity="1" fill-rule="nonzero"/></g></g></g></g></g></g></g></g><g clip-path="url(#450cec7b08)"><g clip-path="url(#e2bd7da43b)"><g transform="matrix(1, 0, 0, 1, 1, 292)"><g clip-path="url(#2127ae498e)"><g clip-path="url(#2001ad8a7b)"><g clip-path="url(#ed9299823d)"><path fill="#323232" d="M 808.25 112.933594 L 0.167969 112.933594 L 0.167969 0.015625 L 808.25 0.015625 Z M 808.25 112.933594 " fill-opacity="1" fill-rule="nonzero"/></g></g></g></g></g></g><g clip-path="url(#97f59a0b27)"><g clip-path="url(#78e351e8d6)"><g transform="matrix(1, 0, 0, 1, 0, 292)"><g clip-path="url(#5c615243c1)"><g clip-path="url(#3cf5d612bc)"><g clip-path="url(#49ae267e73)"><path fill="#464646" d="M 424.359375 112.933594 L 0.0273438 112.933594 L 0.0273438 0.015625 L 424.359375 0.015625 Z M 424.359375 112.933594 " fill-opacity="1" fill-rule="nonzero"/></g></g></g></g></g></g><g clip-path="url(#c24c3d67d1)"><g clip-path="url(#08476dc4b8)"><g clip-path="url(#dd46450847)"><g transform="matrix(1, 0, 0, 1, 360, 297)"><g clip-path="url(#2a60b83c8b)"><g clip-path="url(#960291ff66)"><g clip-path="url(#8ebf8a5dab)"><g clip-path="url(#3021a34d2c)"><path fill="#323232" d="M 161.769531 242.195312 L -11.335938 69.09375 L 68.511719 -10.753906 L 241.613281 162.351562 Z M 161.769531 242.195312 " fill-opacity="1" fill-rule="nonzero"/></g></g></g></g></g></g></g></g><g clip-path="url(#df22bcc165)"><g clip-path="url(#fb7f67b856)"><g transform="matrix(1, 0, 0, 1, 404, 292)"><g clip-path="url(#1859d322c2)"><g clip-path="url(#c5a645170c)"><g clip-path="url(#da78f34c58)"><path fill="#626262" d="M 101.136719 -21.207031 L 101.136719 134.085938 L 0.996094 134.085938 L 0.996094 -21.207031 Z M 101.136719 -21.207031 " fill-opacity="1" fill-rule="nonzero"/></g></g></g></g></g></g><g clip-path="url(#4635369ba4)"><g clip-path="url(#7a78bae96d)"><g transform="matrix(1, 0, 0, 1, 360, 292)"><g clip-path="url(#e990b4228e)"><g clip-path="url(#d94c9ebc0c)"><g clip-path="url(#a6bbc93f19)"><path fill="#626262" d="M 80.226562 112.945312 L 0.554688 112.945312 L 0.554688 -0.0273438 L 80.226562 -0.0273438 Z M 80.226562 112.945312 " fill-opacity="1" fill-rule="nonzero"/></g></g></g></g></g></g><g clip-path="url(#5a6ad4cbdd)"><g clip-path="url(#95bddc5182)"><g transform="matrix(1, 0, 0, 1, 326, 292)"><g clip-path="url(#fc0c3ad922)"><g clip-path="url(#914b4917f4)"><g clip-path="url(#a4a94ec6d2)"><rect x="-504.2" width="1166.4" fill="#626262" height="1166.39999" y="-470.199998" fill-opacity="1"/></g></g></g></g></g></g></svg>